<svg width="24" height="24" viewBox="0 0 24 24" fill="none" xmlns="http://www.w3.org/2000/svg">
<path d="M5.4 2.1001H18.6C19.7 2.1001 20.6 3.0001 20.6 4.1001V6.3001C20.6 7.1001 20.1 8.1001 19.6 8.6001L15.3 12.4001C14.7 12.9001 14.3 13.9001 14.3 14.7001V19.0001C14.3 19.6001 13.9 20.4001 13.4 20.7001L12 21.6001C10.7 22.4001 8.9 21.5001 8.9 19.9001V14.6001C8.9 13.9001 8.5 13.0001 8.1 12.5001L4.3 8.5001C3.8 8.0001 3.4 7.1001 3.4 6.5001V4.2001C3.4 3.0001 4.3 2.1001 5.4 2.1001Z" stroke="#177097" stroke-width="1.5" stroke-miterlimit="10" stroke-linecap="round" stroke-linejoin="round"/>
<path d="M10.93 2.1001L6 10.0001" stroke="#177097" stroke-width="1.5" stroke-miterlimit="10" stroke-linecap="round" stroke-linejoin="round"/>
</svg>
