<svg width="173" height="76" viewBox="0 0 173 76" fill="none" xmlns="http://www.w3.org/2000/svg">
<path d="M97.1294 26.7867C92.5784 26.7867 88.7131 28.3441 86.0948 31.5212V27.1605H78.676V72.5113H86.4688V56.3769C89.1495 59.4294 92.8901 60.8621 97.1294 60.8621C106.855 60.8621 114.024 54.1343 114.024 43.7933C114.024 33.5146 106.855 26.7867 97.1294 26.7867ZM96.2566 54.1966C90.6458 54.1966 86.3441 50.1474 86.3441 43.7933C86.3441 37.4392 90.6458 33.39 96.2566 33.39C101.867 33.39 106.107 37.4392 106.107 43.7933C106.107 50.1474 101.867 54.1966 96.2566 54.1966ZM133.634 26.7867C129.394 26.7867 125.654 28.2195 122.973 31.2097V14.2031H115.18V60.4261H122.599V56.1277C125.217 59.3048 129.083 60.8621 133.634 60.8621C143.359 60.8621 150.528 54.1343 150.528 43.7933C150.528 33.4523 143.359 26.7867 133.634 26.7867ZM132.761 54.1966C127.15 54.1966 122.848 50.1474 122.848 43.7933C122.848 37.4392 127.15 33.39 132.761 33.39C138.372 33.39 142.611 37.4392 142.611 43.7933C142.611 50.1474 138.372 54.1966 132.761 54.1966ZM159.104 32.0195V27.1605H151.685V60.4261H159.478V44.2917C159.478 37.5015 163.218 34.013 169.141 34.013C169.702 34.013 170.263 34.0753 170.949 34.1998V26.7867C165.4 26.7867 161.348 28.531 159.104 32.0195Z" fill="url(#paint0_linear_4091_12378)"/>
<path d="M91.606 68.836H94.6981V68.1508H92.4164V64.4754H91.606V68.836ZM97.0525 68.836H97.8629V64.4754H97.0525V68.836ZM103.943 65.1544V64.4754H100.758V68.836H101.568V67.1665H103.675V66.4813H101.568V65.1544H103.943ZM107.252 68.157V66.9547H109.359V66.2882H107.252V65.1544H109.627V64.4754H106.442V68.836H109.715V68.157H107.252ZM117.123 68.8983C118.32 68.8983 118.887 68.3003 118.887 67.6026C118.887 66.0016 116.3 66.6059 116.3 65.6777C116.3 65.3475 116.574 65.0859 117.247 65.0859C117.628 65.0859 118.058 65.198 118.451 65.4285L118.706 64.7993C118.326 64.5501 117.777 64.4131 117.254 64.4131C116.057 64.4131 115.496 65.0111 115.496 65.7151C115.496 67.3347 118.089 66.718 118.089 67.6587C118.089 67.9826 117.802 68.2255 117.123 68.2255C116.587 68.2255 116.032 68.0262 115.683 67.7459L115.402 68.3751C115.764 68.6865 116.443 68.8983 117.123 68.8983ZM123.425 68.8983C124.142 68.8983 124.753 68.6429 125.158 68.1695L124.634 67.6711C124.316 68.02 123.924 68.1882 123.469 68.1882C122.565 68.1882 121.91 67.5528 121.91 66.6557C121.91 65.7587 122.565 65.1232 123.469 65.1232C123.924 65.1232 124.316 65.2914 124.634 65.6341L125.158 65.1419C124.753 64.6685 124.142 64.4131 123.431 64.4131C122.091 64.4131 121.093 65.3537 121.093 66.6557C121.093 67.9577 122.091 68.8983 123.425 68.8983ZM127.649 68.836H128.459V64.4754H127.649V68.836ZM132.165 68.157V66.9547H134.272V66.2882H132.165V65.1544H134.54V64.4754H131.354V68.836H134.627V68.157H132.165ZM140.318 64.4754V67.4282L137.912 64.4754H137.245V68.836H138.049V65.8833L140.456 68.836H141.123V64.4754H140.318ZM146.026 68.8983C146.743 68.8983 147.354 68.6429 147.759 68.1695L147.236 67.6711C146.918 68.02 146.525 68.1882 146.07 68.1882C145.166 68.1882 144.511 67.5528 144.511 66.6557C144.511 65.7587 145.166 65.1232 146.07 65.1232C146.525 65.1232 146.918 65.2914 147.236 65.6341L147.759 65.1419C147.354 64.6685 146.743 64.4131 146.032 64.4131C144.692 64.4131 143.695 65.3537 143.695 66.6557C143.695 67.9577 144.692 68.8983 146.026 68.8983ZM151.061 68.157V66.9547H153.168V66.2882H151.061V65.1544H153.436V64.4754H150.25V68.836H153.523V68.157H151.061ZM157.494 68.8983C158.691 68.8983 159.258 68.3003 159.258 67.6026C159.258 66.0016 156.671 66.6059 156.671 65.6777C156.671 65.3475 156.945 65.0859 157.619 65.0859C157.999 65.0859 158.429 65.198 158.822 65.4285L159.078 64.7993C158.697 64.5501 158.149 64.4131 157.625 64.4131C156.428 64.4131 155.867 65.0111 155.867 65.7151C155.867 67.3347 158.46 66.718 158.46 67.6587C158.46 67.9826 158.174 68.2255 157.494 68.2255C156.958 68.2255 156.403 68.0262 156.054 67.7459L155.773 68.3751C156.135 68.6865 156.814 68.8983 157.494 68.8983Z" fill="black"/>
<mask id="mask0_4091_12378" style="mask-type:luminance" maskUnits="userSpaceOnUse" x="0" y="14" width="68" height="59">
<path d="M67.018 14.6396H0V72.3526H67.018V14.6396Z" fill="white"/>
</mask>
<g mask="url(#mask0_4091_12378)">
<path d="M7.14961 48.1233C11.0982 48.1233 14.2992 44.9247 14.2992 40.9793C14.2992 37.0335 11.0982 33.835 7.14961 33.835C3.201 33.835 0 37.0335 0 40.9793C0 44.9247 3.201 48.1233 7.14961 48.1233Z" fill="#646AEC"/>
<path d="M25.3672 49.1655C27.7701 49.1655 29.718 47.2191 29.718 44.8183C29.718 42.4171 27.7701 40.4707 25.3672 40.4707C22.9643 40.4707 21.0164 42.4171 21.0164 44.8183C21.0164 47.2191 22.9643 49.1655 25.3672 49.1655Z" fill="#1567E0"/>
<path d="M29.5143 33.8602C34.826 33.8602 39.132 29.5576 39.132 24.25C39.132 18.9423 34.826 14.6396 29.5143 14.6396C24.2027 14.6396 19.8967 18.9423 19.8967 24.25C19.8967 29.5576 24.2027 33.8602 29.5143 33.8602Z" fill="#6AA0F1"/>
<path d="M21.0163 72.3527C26.328 72.3527 30.6339 68.05 30.6339 62.7421C30.6339 57.4346 26.328 53.1318 21.0163 53.1318C15.7046 53.1318 11.3987 57.4346 11.3987 62.7421C11.3987 68.05 15.7046 72.3527 21.0163 72.3527Z" fill="#6AA0F1"/>
<path d="M50.8361 67.0895C59.7872 67.0895 67.0436 59.8387 67.0436 50.8944C67.0436 41.9501 59.7872 34.6992 50.8361 34.6992C41.885 34.6992 34.6287 41.9501 34.6287 50.8944C34.6287 59.8387 41.885 67.0895 50.8361 67.0895Z" fill="#373EE7"/>
</g>
<defs>
<linearGradient id="paint0_linear_4091_12378" x1="172.844" y1="-13.0048" x2="105.291" y2="84.9145" gradientUnits="userSpaceOnUse">
<stop offset="0.171875" stop-color="#373EE7"/>
<stop offset="1" stop-color="#3D84ED"/>
</linearGradient>
</defs>
</svg>
