<svg width="758" height="1024" viewBox="0 0 758 1024" fill="none" xmlns="http://www.w3.org/2000/svg">
<rect width="758" height="1024" fill="white"/>
<ellipse cx="378.888" cy="914.022" rx="313.888" ry="108.366" fill="#177199" fill-opacity="0.05"/>
<path d="M379.19 476.711C380.85 473.368 383.504 470.593 385.127 467.232C386.75 463.871 387.066 459.373 384.362 456.801C382.066 454.616 378.469 454.586 375.723 453.004C368.728 448.973 368.736 436.171 360.738 435.064C356.849 434.527 353.331 437.443 350.98 440.587C348.63 443.732 346.757 447.401 343.497 449.589C339.807 452.066 335.036 452.173 330.938 453.894C323.081 457.192 318.962 465.672 315.518 473.466C313.299 478.487 311.03 483.902 312.059 489.294C309.822 490.687 310.819 494.431 313.052 495.83C315.286 497.229 318.091 497.198 320.656 497.804C326.046 499.077 330.46 503.368 332.553 508.496C334.183 512.494 334.517 516.882 334.832 521.188C335.378 528.659 335.924 536.13 336.47 543.601C336.712 546.925 337.031 550.457 339.054 553.105C341.077 555.754 345.459 556.863 347.733 554.427C349.906 552.099 348.927 548.413 348.883 545.229C348.839 542.044 351.718 538.078 354.433 539.744L355.39 537.572C361.59 535.352 367.02 531.393 371.028 526.167C375.036 520.942 377.453 514.672 377.991 508.108C378.684 497.536 374.477 486.2 379.19 476.711Z" fill="#177199" fill-opacity="0.35"/>
<path d="M385.526 543.752C386.125 543.187 386.55 542.463 386.751 541.665C386.952 540.867 386.92 540.028 386.66 539.248C386.4 538.467 385.922 537.777 385.282 537.259C384.643 536.741 383.868 536.417 383.051 536.324L383.061 536.683C381.894 537.364 380.563 537.714 379.212 537.695C377.866 537.673 376.526 537.886 375.252 538.322C374.618 538.552 374.07 538.969 373.678 539.517C373.286 540.065 373.069 540.719 373.055 541.393C373.129 541.91 373.327 542.401 373.631 542.824C373.935 543.248 374.338 543.592 374.803 543.827C375.738 544.288 376.742 544.593 377.776 544.73C380.438 545.231 383.555 545.61 385.526 543.752Z" fill="#AECDDB"/>
<path d="M437.449 476.888C438.564 476.13 439.511 475.149 440.23 474.008C440.578 473.431 440.744 472.762 440.705 472.088C440.666 471.415 440.425 470.769 440.013 470.236C439.173 469.507 438.093 469.117 436.982 469.141C433.964 468.915 430.931 469.273 428.048 470.194C431.008 472.816 433.968 475.439 436.928 478.061L437.449 476.888Z" fill="#AECDDB"/>
<path d="M422.647 483.708C423.843 485.028 423.462 487.077 423.123 488.826C422.784 490.575 422.741 492.761 424.246 493.716C425.55 494.543 427.38 493.868 428.334 492.653C429.187 491.358 429.707 489.872 429.847 488.328C430.315 486.083 430.527 483.792 430.478 481.499C430.421 479.19 429.607 476.963 428.159 475.162C427.132 473.991 425.764 473.17 424.247 472.816C422.73 472.461 421.14 472.591 419.7 473.185L421.075 473.118C420.075 474.401 419.317 475.856 418.838 477.41C418.608 478.192 418.592 479.02 418.791 479.809C418.99 480.599 419.396 481.321 419.968 481.9C420.784 482.61 421.921 482.907 422.647 483.708Z" fill="#177199" fill-opacity="0.35"/>
<path d="M490.12 461.562L490.364 460.809C489.341 461.4 488.553 462.325 488.131 463.428C487.709 464.532 487.678 465.746 488.045 466.869C488.832 466.249 489.438 465.43 489.803 464.497C490.168 463.564 490.277 462.551 490.12 461.562Z" fill="#AECDDB"/>
<path d="M476.828 472.338C478.13 471.601 479.241 470.569 480.072 469.325C480.903 468.081 481.431 466.659 481.614 465.174C481.755 464.251 481.648 463.306 481.305 462.438C481.128 462.007 480.848 461.626 480.488 461.329C480.129 461.032 479.702 460.829 479.245 460.737L478.688 461.614C477.89 460.927 476.548 461.633 476.212 462.632C475.996 463.669 476.086 464.747 476.471 465.733C476.856 466.726 476.839 467.83 476.423 468.81C475.974 469.386 475.469 469.916 474.915 470.393C474.645 470.639 474.468 470.971 474.416 471.333C474.363 471.695 474.438 472.064 474.628 472.377C475.152 472.976 476.132 472.724 476.828 472.338Z" fill="#AECDDB"/>
<path d="M471.161 467.443C471.637 466.585 471.862 465.61 471.809 464.63L470.591 464.248C469.813 464.564 469.123 465.063 468.579 465.703C468.414 465.869 468.288 466.069 468.209 466.289C468.131 466.509 468.102 466.744 468.124 466.976C468.147 467.209 468.221 467.433 468.34 467.634C468.46 467.835 468.622 468.007 468.816 468.137C469.01 468.268 469.23 468.354 469.461 468.389C469.692 468.425 469.928 468.409 470.152 468.343C470.376 468.276 470.583 468.161 470.757 468.005C470.932 467.85 471.069 467.658 471.161 467.443Z" fill="#AECDDB"/>
<path d="M530.686 461.279C530.797 461.371 530.906 461.466 531.016 461.559C531.113 461.539 531.205 461.502 531.304 461.49L530.686 461.279Z" fill="#AECDDB"/>
<path d="M528.735 471.968C529.853 471.063 530.971 470.159 532.089 469.254C532.683 468.834 533.189 468.302 533.579 467.687C533.846 467.106 533.961 466.466 533.914 465.828C533.867 465.19 533.659 464.575 533.309 464.039C532.69 463.089 531.915 462.25 531.016 461.56C530.029 461.793 529.161 462.381 528.578 463.211C527.995 464.042 527.736 465.057 527.852 466.066C528.054 467.348 528.859 468.72 528.202 469.839C527.946 470.275 527.505 470.572 527.21 470.982C526.915 471.393 526.819 472.046 527.225 472.348C527.675 472.683 528.298 472.321 528.735 471.968Z" fill="#AECDDB"/>
<path d="M531.18 477.505C531.596 477.527 532.012 477.46 532.399 477.307C532.786 477.155 533.137 476.92 533.426 476.621C534.92 475.396 536.228 473.959 537.307 472.356C534.791 473.153 532.275 473.95 529.759 474.747L530.544 475.664C529.847 476.119 530.363 477.348 531.18 477.505Z" fill="#AECDDB"/>
<path d="M538.231 482.682C538.385 483.075 538.663 483.406 539.022 483.626C539.382 483.845 539.803 483.941 540.223 483.898C540.64 483.843 541.04 483.696 541.395 483.469C541.75 483.242 542.05 482.94 542.275 482.584C542.658 482.02 542.883 481.364 542.927 480.684C542.971 480.004 542.832 479.325 542.526 478.717C542.219 478.108 541.755 477.593 541.183 477.223C540.61 476.854 539.949 476.644 539.269 476.616L539.963 477.677C540.14 479.489 537.678 480.949 538.231 482.682Z" fill="#AECDDB"/>
<path d="M587.092 502.522C587.773 503.03 588.599 503.303 589.448 503.301C590.297 503.299 591.123 503.022 591.801 502.511C592.24 502.135 592.598 501.673 592.85 501.153C593.103 500.633 593.245 500.067 593.269 499.489C593.293 498.911 593.197 498.335 592.987 497.796C592.778 497.257 592.459 496.767 592.052 496.357L590.767 497.075C590.054 496.617 589.191 496.453 588.361 496.618C587.53 496.783 586.795 497.264 586.312 497.96C585.878 498.689 585.718 499.549 585.861 500.385C586.005 501.221 586.441 501.979 587.092 502.522Z" fill="#AECDDB"/>
<path d="M602.034 504.213C602.66 504.032 603.228 503.692 603.685 503.228C604.143 502.764 604.473 502.19 604.644 501.561L602.147 501.233C601.452 500.708 600.643 500.355 599.786 500.202C599.356 500.137 598.917 500.222 598.543 500.443C598.168 500.664 597.881 501.006 597.729 501.413C597.676 501.76 597.712 502.114 597.835 502.442C597.957 502.771 598.162 503.062 598.429 503.289C598.901 503.739 599.48 504.06 600.111 504.222C600.742 504.384 601.404 504.381 602.034 504.213Z" fill="#AECDDB"/>
<path d="M591.718 509.207C591.762 509.614 591.921 509.999 592.176 510.319C592.431 510.638 592.771 510.879 593.158 511.012C593.58 511.212 594.053 511.281 594.515 511.209C594.977 511.138 595.406 510.929 595.748 510.611C595.899 510.44 596.007 510.236 596.063 510.016C596.12 509.796 596.122 509.565 596.072 509.343C596.021 509.122 595.918 508.915 595.771 508.741C595.625 508.567 595.439 508.431 595.229 508.343L593.356 508.002C592.632 507.627 591.707 508.392 591.718 509.207Z" fill="#AECDDB"/>
<path d="M483.022 522.38L481.573 521.056C481.958 521.593 482.452 522.044 483.022 522.38Z" fill="#AECDDB"/>
<path d="M471.948 514.584C472.84 518.729 477.305 522.106 481.359 520.86L481.572 521.056C480.282 519.289 480.063 516.676 480.365 514.403C480.924 510.509 482.455 506.818 484.817 503.671C487.178 500.525 490.294 498.024 493.878 496.399C494.859 496.092 495.737 495.521 496.413 494.746C496.991 493.902 496.776 492.453 495.78 492.215C495.24 492.153 494.694 492.279 494.235 492.572L486.703 496.28C482.898 498.152 479.018 500.078 476.03 503.087C473.041 506.095 471.055 510.438 471.948 514.584Z" fill="#AECDDB"/>
<path d="M287.522 626.861C286.588 626.544 285.602 627.247 285.053 628.066C284.609 628.946 284.088 629.784 283.495 630.571C282.059 632.051 279.441 631.757 277.892 630.395C276.343 629.033 275.672 626.926 275.371 624.886C275.011 622.437 275.166 619.705 276.782 617.831C278.446 615.901 281.18 615.383 283.696 614.982C286.295 614.568 289.207 614.223 291.336 615.77C292.678 616.744 293.459 618.316 294.702 619.414C295.944 620.511 298.154 620.927 299.089 619.558C299.334 619.073 299.458 618.536 299.45 617.993C299.442 617.449 299.303 616.916 299.044 616.438C298.519 615.486 298.202 614.432 298.117 613.348C298.179 611.844 299.388 610.648 300.624 609.788C301.86 608.928 303.256 608.186 304.067 606.917C305.065 605.356 304.959 603.345 305.578 601.599C307.076 597.373 312.422 595.494 313.979 591.289C314.354 590.405 314.396 589.414 314.098 588.501C313.446 586.827 311.684 587.156 311.576 585.109C311.473 583.151 313.106 581.231 314.765 580.413C317.053 579.285 319.721 579.377 322.27 579.308C324.82 579.24 327.567 578.901 329.439 577.168C330.044 576.543 330.511 575.798 330.809 574.981C331.107 574.164 331.229 573.293 331.167 572.425C331.104 571.558 330.86 570.713 330.449 569.946C330.038 569.18 329.47 568.509 328.781 567.977C327.387 567.014 325.624 566.679 324.268 565.664C322.578 564.399 321.778 562.293 320.462 560.643C319.367 559.387 318.114 558.277 316.734 557.343C315.605 556.505 314.476 555.667 313.346 554.829C311.305 553.314 309.181 551.76 306.696 551.221C304.212 550.681 301.253 551.445 300.009 553.662C299.519 554.65 299.251 555.733 299.224 556.836C299.111 559.433 299.219 562.035 299.548 564.613C299.753 566.688 299.958 568.764 300.163 570.839C300.347 572.7 300.149 575.153 298.343 575.636C294.337 576.707 295.689 570.783 294.8 568.968C293.44 566.19 287.19 564.855 284.519 563.698C282.85 562.975 281.089 562.176 280.082 560.663C278.828 558.778 279.085 556.214 280.069 554.176C281.052 552.137 282.654 550.478 284.109 548.745C285.593 546.978 286.944 545.105 288.294 543.233C289.859 541.063 291.424 538.893 292.989 536.722C294.996 533.939 297.106 530.542 295.966 527.305C295.719 526.872 295.35 526.521 294.904 526.297C294.459 526.073 293.957 525.986 293.462 526.045C292.967 526.105 292.501 526.309 292.122 526.633C291.742 526.956 291.467 527.385 291.33 527.864C290.83 529.611 292.163 531.843 290.888 533.137C290.451 533.489 289.904 533.676 289.343 533.666C288.782 533.655 288.243 533.448 287.82 533.08C286.994 532.317 286.365 531.366 285.986 530.307C284.441 526.874 282.936 523.419 281.35 520.004C280.848 518.924 280.325 517.076 278.805 517.258C277.486 517.416 276.774 519.338 276.82 520.454C276.886 522.078 277.784 523.528 278.47 525.002C279.156 526.475 279.635 528.244 278.882 529.684C277.929 531.508 275.514 531.917 273.457 531.857C269.58 531.739 265.781 530.737 262.351 528.927C262.262 530.832 262.172 532.738 262.083 534.643C259.353 533.5 256.623 532.358 253.893 531.215C253.362 530.993 252.832 530.771 252.302 530.549C249.999 529.585 247.693 528.62 245.323 527.838C243.977 527.394 242.612 527.009 241.248 526.624C240.419 526.391 239.59 526.157 238.761 525.923C237.124 525.343 235.389 525.096 233.656 525.195C231.835 525.424 230.211 526.402 228.527 527.133C224.77 528.764 219.91 527.123 215.884 527.094C214.287 524.762 212.131 522.868 209.613 521.585C207.095 520.302 204.295 519.671 201.47 519.749C198.645 519.828 195.885 520.613 193.442 522.033C190.999 523.454 188.951 525.464 187.485 527.881C186.777 529.105 186.147 530.373 185.598 531.676C185.052 532.9 184.505 534.124 183.959 535.349C183.158 537.144 182.339 539.036 182.496 540.997C182.654 542.957 184.156 544.96 186.123 544.942C181.486 547.041 180.521 554.388 184.458 557.613C185.549 558.507 186.886 559.091 187.867 560.103C188.609 560.867 189.105 561.836 189.292 562.885C189.479 563.934 189.348 565.015 188.917 565.989C188.485 566.963 187.772 567.786 186.87 568.352C185.967 568.918 184.916 569.201 183.852 569.166C186.599 570.227 189.625 570.326 192.435 569.446C195.246 568.565 197.675 566.758 199.326 564.319C201.009 561.683 201.741 558.39 204.031 556.26C207.064 553.439 212.074 553.658 215.572 555.876C219.07 558.094 221.283 561.871 222.806 565.723C224.8 570.771 226.077 576.54 230.327 579.917C232.382 581.549 234.984 582.468 236.8 584.362C239.387 587.06 239.834 591.133 239.776 594.87C239.718 598.607 239.315 602.484 240.676 605.965C242.038 609.446 245.941 612.309 249.44 610.997C248.438 613.972 248.469 617.198 249.528 620.153C250.587 623.107 252.612 625.618 255.276 627.279C254.638 623.324 254.001 619.37 253.363 615.415C256.541 616.309 258.601 619.392 259.79 622.471C260.98 625.551 261.608 628.882 263.333 631.697C266.048 636.13 270.964 638.04 275.966 638.024C281.369 638.005 283.421 635.429 286.981 631.635C287.697 630.988 288.24 630.173 288.561 629.263C288.707 628.805 288.682 628.309 288.491 627.868C288.3 627.426 287.956 627.069 287.522 626.861Z" fill="#177199" fill-opacity="0.35"/>
<path d="M302.821 626.663C299.801 626.189 296.781 625.714 293.761 625.239C295.344 626.191 296.928 627.143 298.511 628.095C299.831 628.973 301.267 629.665 302.776 630.15C303.534 630.388 304.332 630.468 305.121 630.385C305.911 630.302 306.674 630.057 307.366 629.667L306.979 628.928C306.37 627.388 304.457 626.92 302.821 626.663Z" fill="#AECDDB"/>
<path d="M300.77 643.452L300.79 643.399C300.608 643.096 300.339 642.855 300.018 642.706C299.697 642.557 299.339 642.508 298.99 642.564C298.294 642.689 297.583 642.7 296.883 642.599C296.439 642.425 296.043 642.147 295.728 641.789C295.413 641.431 295.188 641.003 295.072 640.54C294.772 639.637 294.683 638.671 294.342 637.782C294.095 637.08 293.659 636.459 293.081 635.988C292.504 635.518 291.809 635.215 291.071 635.115C290.33 635.055 289.596 635.289 289.027 635.767C288.459 636.245 288.1 636.927 288.031 637.666C288.089 638.428 288.331 639.164 288.736 639.811C289.061 640.437 289.387 641.064 289.713 641.691C289.987 642.252 290.303 642.793 290.658 643.307C291.234 644.102 291.988 644.751 292.86 645.203C293.731 645.655 294.696 645.898 295.678 645.912C296.659 645.926 297.63 645.711 298.514 645.284C299.398 644.857 300.171 644.229 300.77 643.451V643.452Z" fill="#AECDDB"/>
<path d="M283.131 482.734C285.431 484.09 288.311 485.024 289.403 487.46L290.034 487.664C289.346 488.518 288.659 489.372 287.971 490.227C287.121 491.283 286.228 492.459 286.248 493.814C286.275 495.681 288.07 497.089 289.884 497.529C291.82 497.927 293.835 497.592 295.537 496.588C297.24 495.585 298.508 493.984 299.098 492.098C299.313 491.311 299.402 490.495 299.591 489.702C300.143 487.82 300.975 486.032 302.06 484.398C308.167 474.125 314.273 463.851 320.38 453.577C321.14 452.298 321.924 450.767 321.353 449.393C321.047 448.812 320.575 448.336 319.997 448.025C319.418 447.715 318.76 447.585 318.107 447.652C316.804 447.81 315.546 448.233 314.412 448.894C313.908 448.009 313.197 447.26 312.34 446.71C311.483 446.16 310.505 445.827 309.49 445.739C307.462 445.582 305.421 445.76 303.45 446.265C298.997 446.937 294.703 448.412 290.777 450.618C288.63 451.704 286.266 453.045 285.643 455.369C284.876 458.229 287.347 461.143 290.19 461.964C293.034 462.786 296.07 462.096 298.948 461.404C299.274 462.8 299.138 464.263 298.562 465.575C297.986 466.887 297 467.976 295.752 468.68C294.504 469.385 293.062 469.666 291.641 469.481C290.22 469.297 288.898 468.657 287.871 467.657C285.808 465.648 284.797 462.161 281.965 461.642C279.141 461.125 276.896 464.137 276.273 466.939C275.664 469.957 275.994 473.09 277.221 475.914C278.447 478.739 280.51 481.119 283.131 482.734Z" fill="#177199" fill-opacity="0.35"/>
<path d="M318.548 532.169C317.189 528.336 315.402 524.668 313.221 521.236C311.568 518.521 309.528 516.063 307.165 513.938C305.005 512.073 302.523 510.619 299.84 509.647C297.236 508.705 294.337 508.24 291.705 509.099C289.072 509.957 286.833 512.405 286.886 515.174C286.945 518.235 289.623 520.629 292.415 521.887C295.206 523.144 298.311 523.692 300.945 525.253C302.735 526.339 304.232 527.848 305.302 529.648C306.373 531.448 306.985 533.483 307.085 535.575L307.749 536.672C306.246 537.17 304.845 537.933 303.611 538.925C303 539.429 302.533 540.085 302.257 540.828C301.981 541.57 301.906 542.372 302.04 543.153C302.5 545.007 304.392 546.071 306.104 546.918C309.266 548.485 312.429 550.051 315.591 551.617C313.981 546.816 319.253 542.348 319.544 537.292C319.555 535.535 319.217 533.793 318.548 532.169Z" fill="#177199" fill-opacity="0.35"/>
<path d="M239.031 519.205C240.95 520.695 243.899 519.998 245.657 518.321C247.414 516.645 248.27 514.259 249.068 511.965C248.777 514.235 248.804 516.536 249.15 518.799C249.33 519.93 249.744 521.012 250.363 521.976C250.983 522.939 251.797 523.764 252.752 524.397C253.619 524.872 254.554 525.213 255.524 525.406C260.033 526.432 264.746 526.096 269.063 524.439L269.102 522.962C266.933 523.21 265.292 520.831 265.148 518.652C265.005 516.474 265.796 514.338 265.865 512.156C265.935 509.974 264.883 507.424 262.735 507.036C263.111 507.791 263.248 508.643 263.128 509.478C263.008 510.313 262.637 511.092 262.063 511.71C261.49 512.329 260.741 512.759 259.918 512.941C259.094 513.124 258.235 513.052 257.453 512.734C254.967 511.724 254.063 508.694 252.142 506.82C250.954 505.764 249.481 505.082 247.908 504.861C246.334 504.639 244.73 504.888 243.297 505.576C241.883 506.298 240.642 507.318 239.661 508.566C238.679 509.814 237.98 511.261 237.612 512.806C237.029 515.047 237.202 517.784 239.031 519.205Z" fill="#AECDDB"/>
<path d="M298.237 503.658L298.326 503.514C297.79 501.967 296.13 501.06 294.51 500.83C292.876 500.722 291.236 500.777 289.614 500.992C287.976 501.204 286.316 500.838 284.919 499.958C283.803 499.124 283.168 497.812 282.276 496.743C281.385 495.673 279.942 494.793 278.646 495.305C277.244 495.859 276.87 497.824 277.55 499.169C278.352 500.461 279.561 501.448 280.987 501.974C286.386 504.453 292.461 505.046 298.237 503.658Z" fill="#AECDDB"/>
<path d="M279.808 508.293C279.36 508.622 279.056 509.111 278.96 509.658C278.864 510.206 278.983 510.77 279.293 511.231C279.603 511.693 280.079 512.016 280.623 512.135C281.166 512.253 281.734 512.157 282.208 511.866L282.681 512.333C283.31 511.206 283.569 509.697 282.765 508.688C282.407 508.269 281.907 507.998 281.362 507.925C280.816 507.852 280.263 507.983 279.808 508.293Z" fill="#AECDDB"/>
<path d="M274.272 512.336C274.279 511.933 274.164 511.538 273.942 511.202C273.72 510.867 273.401 510.606 273.028 510.454C272.774 510.411 272.514 510.419 272.263 510.479C272.013 510.538 271.777 510.648 271.57 510.801C271.363 510.955 271.189 511.148 271.058 511.37C270.928 511.593 270.844 511.839 270.811 512.095C270.772 512.615 270.841 513.138 271.012 513.632C271.184 514.125 271.455 514.577 271.809 514.961C272.015 515.27 272.284 515.533 272.599 515.73C272.913 515.928 273.266 516.057 273.634 516.108C274.376 516.132 275.132 515.357 274.831 514.679L273.699 514.657C274.048 513.931 274.243 513.141 274.272 512.336Z" fill="#AECDDB"/>
<path d="M252.133 500.742C252.549 501.079 252.965 501.416 253.38 501.753C254.101 502.376 254.879 502.928 255.704 503.403C257.147 504.202 258.844 504.41 260.438 503.982C261.225 503.758 261.942 503.339 262.525 502.764C263.107 502.19 263.535 501.478 263.77 500.694C264.267 498.821 263.456 496.876 262.663 495.108C262.482 494.602 262.183 494.146 261.791 493.778C261.59 493.601 261.334 493.498 261.066 493.487C260.798 493.477 260.534 493.559 260.32 493.721C260.165 493.914 260.062 494.144 260.02 494.388C259.979 494.633 260.001 494.884 260.084 495.118C260.254 495.584 260.332 496.078 260.313 496.574C260.234 497.063 259.721 497.525 259.269 497.323L259.197 498.987C257.038 497.894 255.896 494.988 253.494 494.701C252.955 494.637 252.408 494.722 251.914 494.947C251.42 495.172 250.997 495.528 250.691 495.977C250.386 496.426 250.21 496.95 250.182 497.493C250.154 498.035 250.275 498.574 250.533 499.052C250.95 499.715 251.494 500.29 252.133 500.742Z" fill="#AECDDB"/>
<path d="M246.992 493.557C247.491 493.215 247.886 492.741 248.133 492.188C248.381 491.636 248.471 491.025 248.393 490.425C248.333 490.134 248.21 489.86 248.032 489.622C247.855 489.384 247.627 489.188 247.365 489.049C247.103 488.909 246.813 488.828 246.517 488.813C246.22 488.798 245.924 488.848 245.649 488.961C245.032 489.422 244.599 490.087 244.426 490.837C243.857 492.442 243.288 494.047 242.719 495.652L243.676 494.956C244.859 494.701 245.984 494.227 246.992 493.557Z" fill="#AECDDB"/>
<path d="M258.072 483.708C258.243 483.493 258.365 483.243 258.429 482.975C258.492 482.708 258.497 482.429 258.441 482.16C258.386 481.891 258.272 481.637 258.108 481.416C257.944 481.196 257.733 481.014 257.491 480.883L256.296 480.771C256.024 480.84 255.772 480.972 255.56 481.156C255.348 481.339 255.182 481.57 255.076 481.83C254.97 482.089 254.925 482.37 254.947 482.65C254.969 482.929 255.056 483.2 255.201 483.44C255.346 483.68 255.545 483.882 255.783 484.031C256.021 484.18 256.29 484.271 256.569 484.297C256.848 484.324 257.13 484.284 257.391 484.182C257.652 484.079 257.885 483.917 258.072 483.708Z" fill="#AECDDB"/>
<path d="M269.073 485.553C270.188 486.087 271.601 486.596 272.571 485.829C272.859 485.569 273.073 485.238 273.191 484.868C273.31 484.499 273.329 484.105 273.247 483.726C273.073 482.97 272.736 482.261 272.261 481.648C270.776 479.517 268.89 477.696 266.708 476.287L266.169 476.988C265.416 478.945 264.688 481.229 265.739 483.043C266.448 484.266 267.798 484.943 269.073 485.553Z" fill="#AECDDB"/>
<path d="M277.385 487.295L279.471 488.239C279.266 487.882 278.955 487.599 278.58 487.43C278.206 487.26 277.787 487.213 277.385 487.295Z" fill="#AECDDB"/>
<path d="M271.762 493.859L270.776 494.184C269.938 495.562 270.301 497.323 270.691 498.888C270.938 499.877 271.47 501.095 272.488 501.05C273.479 501.006 273.918 499.804 274.108 498.83C274.405 497.773 274.437 496.658 274.201 495.585C274.067 495.054 273.748 494.588 273.3 494.272C272.853 493.955 272.308 493.809 271.762 493.859Z" fill="#AECDDB"/>
<path d="M256.04 489.223L256.77 489.516C256.941 489.492 257.099 489.412 257.22 489.288C257.341 489.165 257.418 489.005 257.438 488.834C257.459 488.662 257.423 488.489 257.335 488.34C257.247 488.191 257.112 488.075 256.952 488.011C256.792 487.946 256.615 487.937 256.448 487.983C256.282 488.029 256.135 488.129 256.032 488.267C255.928 488.405 255.872 488.574 255.874 488.746C255.875 488.919 255.934 489.087 256.04 489.223Z" fill="#AECDDB"/>
<path d="M292.817 545.002C292.463 545.01 292.117 545.102 291.806 545.271C291.496 545.44 291.23 545.681 291.032 545.973C290.833 546.266 290.707 546.601 290.665 546.952C290.623 547.303 290.665 547.659 290.788 547.991C291.504 549.533 293.971 549.54 295.068 548.24C295.348 547.87 295.55 547.447 295.659 546.996C295.767 546.544 295.782 546.076 295.7 545.619C295.619 545.162 295.444 544.727 295.186 544.341C294.928 543.956 294.593 543.628 294.202 543.378L292.817 545.002Z" fill="#AECDDB"/>
<path d="M328.35 581.544C328.063 581.62 327.795 581.753 327.56 581.935C327.326 582.117 327.13 582.344 326.985 582.603C326.84 582.862 326.749 583.148 326.716 583.442C326.683 583.737 326.709 584.036 326.794 584.32L328.842 584.463C329.535 584.115 330.229 583.766 330.923 583.418C330.881 583.124 330.78 582.842 330.627 582.588C330.474 582.333 330.272 582.112 330.032 581.938C329.792 581.763 329.52 581.638 329.231 581.57C328.942 581.503 328.642 581.493 328.35 581.544Z" fill="#AECDDB"/>
<path d="M320.025 584.077C319.439 584.493 318.969 585.052 318.658 585.7C318.348 586.348 318.207 587.065 318.251 587.782C318.317 588.498 318.61 589.174 319.086 589.712C319.563 590.25 320.198 590.623 320.9 590.776C321.609 590.888 322.334 590.725 322.928 590.323C323.521 589.92 323.94 589.307 324.099 588.607C324.445 586.488 322.169 584.937 321.35 582.952L320.025 584.077Z" fill="#AECDDB"/>
<path d="M399.575 570.085C399.791 571.676 398.358 573.069 398.305 574.673C398.241 576.577 400.313 578.057 402.208 577.871C403.149 577.708 404.039 577.329 404.809 576.763C405.578 576.198 406.206 575.462 406.643 574.613L406.684 574.435C405.761 573.392 404.838 572.348 403.914 571.305C402.781 570.024 401.579 568.565 401.624 566.855C401.645 566.012 401.978 565.195 401.959 564.352C401.915 563.745 401.779 563.149 401.558 562.582C401.308 561.837 400.967 560.996 400.222 560.744C399.289 560.429 398.347 561.256 397.902 562.134C397.502 562.944 397.307 563.84 397.335 564.744C397.364 565.647 397.614 566.529 398.065 567.313C398.604 568.228 399.432 569.033 399.575 570.085Z" fill="#AECDDB"/>
<path d="M390.869 575.681C391.071 575.79 391.294 575.854 391.523 575.869C391.752 575.884 391.982 575.849 392.196 575.766C393.018 575.626 393.809 575.339 394.53 574.918C394.887 574.703 395.182 574.397 395.382 574.031C395.583 573.664 395.683 573.251 395.671 572.834C395.546 572.309 395.269 571.833 394.874 571.466C394.478 571.099 393.983 570.858 393.45 570.772C393.081 570.642 392.685 570.605 392.297 570.664C391.91 570.723 391.543 570.877 391.229 571.111C390.541 571.757 390.623 572.852 390.758 573.785L390.613 574.028C390.484 574.605 390.401 575.322 390.869 575.681Z" fill="#AECDDB"/>
<path d="M536.167 643.649C535.967 643.152 535.768 642.656 535.568 642.159C535.294 642.834 535.396 643.523 536.167 643.649Z" fill="#AECDDB"/>
<path d="M656.022 539.214C653.46 536.434 651.891 534.831 650.273 531.386C649.392 529.485 648.055 527.832 646.38 526.575C644.705 525.317 642.745 524.493 640.675 524.178C635.359 523.302 629.927 524.689 624.547 524.411C615.93 523.966 608.159 519.344 599.907 516.823C595.286 515.528 590.581 514.558 585.825 513.918C583.085 513.485 580.344 513.052 577.604 512.618C568.621 511.198 559.581 509.773 550.489 509.962C547.867 510.016 544.215 509.228 544.425 506.614C544.686 503.368 550.527 503.794 551.65 500.737C552.345 498.845 550.682 496.86 548.857 496.005C547.033 495.15 544.927 494.892 543.271 493.744C541.616 492.596 540.708 489.935 542.23 488.614C538.012 490.776 533.794 492.939 529.577 495.101C526.07 496.899 522.152 499.238 521.532 503.129C519.419 503.688 517.57 504.972 516.309 506.758C513.937 506.77 512.072 509.048 511.681 511.388C511.29 513.728 512.001 516.097 512.704 518.363C511.844 516.714 510.93 515.003 509.413 513.927C507.896 512.852 505.587 512.647 504.294 513.983C502.967 515.354 503.277 517.655 504.216 519.316C505.154 520.977 506.596 522.318 507.482 524.008C510.249 529.287 505.236 536.719 499.305 536.131C499.703 530.68 500.101 525.229 500.498 519.778C500.751 518.101 500.61 516.389 500.087 514.776C499.44 513.216 497.783 511.934 496.135 512.303C493.171 512.965 493.424 517.307 494.657 520.083C495.89 522.859 497.119 526.719 494.602 528.419C492.977 529.516 490.773 528.838 489.018 527.962C487.263 527.086 485.386 526.006 483.468 526.416C481.55 526.825 480.343 529.757 482.038 530.744C479.228 530.256 476.417 529.768 473.606 529.279C473.467 530.106 473.156 530.895 472.693 531.595C472.23 532.295 471.625 532.889 470.918 533.34C470.21 533.792 469.416 534.089 468.587 534.215C467.757 534.34 466.911 534.29 466.102 534.067C465.826 532.924 465.55 531.78 465.274 530.637C464.863 530.522 464.451 530.408 464.04 530.293C465.331 530.653 463.311 536.097 461.5 540.256C459.066 539.971 455.508 539.916 455.103 539.218C453.159 535.878 453.39 527.921 450.012 526.042C448.319 525.099 446.582 524.241 444.802 523.465C443.867 523.021 442.879 522.696 441.862 522.5C439.788 522.173 437.697 522.817 435.696 523.452C433.331 524.203 430.911 524.982 428.953 526.506C427.281 527.957 425.848 529.661 424.706 531.557C420.84 537.279 416.974 543.001 413.108 548.722C411.956 550.25 411.05 551.949 410.422 553.756C410.126 554.655 410.028 555.607 410.133 556.547C410.239 557.487 410.546 558.394 411.034 559.205C411.548 559.999 412.315 560.598 413.211 560.904C414.106 561.21 415.079 561.206 415.972 560.892C417.093 560.407 418.215 559.308 419.325 559.815C420.166 560.2 420.376 561.305 420.288 562.226C420.074 563.127 420.058 564.064 420.239 564.972C420.744 566.405 422.689 566.903 424.076 566.283C425.425 565.547 426.436 564.317 426.895 562.851C428.232 559.423 428.095 555.63 428.428 551.966C428.761 548.302 429.763 544.383 432.651 542.105C433.516 541.423 434.787 540.931 435.677 541.58C436.01 541.883 436.24 542.282 436.336 542.722C436.431 543.162 436.387 543.621 436.209 544.035C435.836 544.854 435.351 545.616 434.767 546.3C433.78 547.688 433.089 549.265 432.738 550.932C432.387 552.599 432.382 554.321 432.725 555.99L433.315 556.355C435.568 555.771 438.582 556.817 441.573 557.82C439.402 558.465 437.491 559.78 436.111 561.576C432.655 566.426 430.153 571.016 423.315 570.958C421.693 570.945 420.084 570.624 418.462 570.62C416.825 570.519 415.212 571.056 413.962 572.119C412.732 573.323 412.352 575.157 411.3 576.519C409.916 578.31 407.604 579.039 405.492 579.852C403.948 580.447 402.322 581.249 401.612 582.743C401.166 583.968 401.064 585.292 401.315 586.571C401.553 588.834 401.974 591.407 403.893 592.629C404.611 593.003 405.396 593.231 406.203 593.3C407.01 593.368 407.822 593.275 408.593 593.026C410.589 592.541 412.542 591.626 414.593 591.763C417.812 591.977 420.463 595.068 420.496 598.294C420.512 599.927 420.036 601.801 421.118 603.024C422.135 604.173 424.153 603.968 425.207 602.852C425.697 602.259 426.034 601.554 426.189 600.8C426.344 600.047 426.311 599.266 426.095 598.528C425.647 597.057 424.959 595.67 424.058 594.424C425.13 594.146 426.264 594.248 427.269 594.713C428.274 595.177 429.086 595.976 429.569 596.972C430.284 598.56 430.053 600.394 430.281 602.121C430.509 603.848 431.561 605.768 433.3 605.867C433.869 605.883 434.426 605.7 434.873 605.348C435.321 604.997 435.631 604.5 435.751 603.944C435.769 603.067 435.721 602.191 435.608 601.321C435.667 600.465 436.052 599.665 436.683 599.083C437.314 598.502 438.143 598.184 439.001 598.195C438.472 599.173 438.3 600.304 438.514 601.395C438.728 602.486 439.315 603.468 440.174 604.174C441.498 605.198 443.248 605.427 444.897 605.713C446.546 606 448.305 606.452 449.369 607.744C451.142 609.896 448.973 610.865 448.635 612.687C448.221 614.924 450.089 618.228 450.807 620.368C454.105 624.982 457.404 629.596 460.702 634.21C461.438 635.332 462.307 636.362 463.289 637.277C466.545 640.073 471.912 639.797 475.035 636.853C476.548 635.321 477.531 633.344 477.839 631.213C478.147 629.082 477.763 626.908 476.745 625.01C474.815 621.498 470.992 619.323 469.104 615.788C472.246 618.389 476.104 619.976 480.167 620.338C487.357 621.799 494.187 624.663 500.268 628.768C500.554 635.12 502.991 641.187 507.181 645.972C507.934 640.55 510.462 635.531 514.369 631.697C516.91 629.219 520.382 627.221 523.868 627.888C527.354 628.554 529.999 632.999 527.891 635.855C529.657 635.986 531.424 636.117 533.191 636.249C533.983 638.219 534.776 640.189 535.568 642.159C535.709 641.745 535.979 641.387 536.338 641.138C536.698 640.888 537.128 640.76 537.565 640.773C539.219 641.023 540.379 642.562 541.952 643.13C544.918 644.201 548.088 641.234 548.472 638.104C548.856 634.974 547.367 631.953 545.92 629.151C549.115 629.742 552.414 629.39 555.412 628.135C558.41 626.881 560.978 624.78 562.8 622.089C564.622 619.399 565.62 616.235 565.672 612.985C565.724 609.736 564.827 606.542 563.092 603.794C566.53 600.183 570.577 597.204 575.046 594.993C579.183 592.95 583.707 591.547 587.322 588.681C590.937 585.814 593.473 580.836 591.734 576.563C590.506 573.544 587.425 571.495 586.503 568.369C585.168 563.844 589.223 559.163 593.803 558.033C598.384 556.902 603.167 558.292 607.679 559.67C606.986 555.028 612.367 550.675 616.763 552.324C618.604 551.578 620.444 550.833 622.285 550.088C620.151 554.792 615.528 557.785 612.128 561.675C608.728 565.564 606.703 571.898 610.254 575.649C615.345 571.035 620.436 566.421 625.527 561.807C630.852 556.98 636.177 552.154 641.502 547.327C641.248 546.58 640.993 545.834 640.739 545.087C645.777 543.173 651.203 541.59 656.022 539.214Z" fill="#177199" fill-opacity="0.35"/>
<path d="M391.6 601.315C391.394 601.611 391.285 601.963 391.287 602.324C391.289 602.684 391.402 603.036 391.61 603.33C391.884 603.562 392.23 603.692 392.588 603.696C392.947 603.701 393.296 603.581 393.576 603.356C394.123 602.889 394.55 602.298 394.821 601.633C395.085 602.144 395.501 602.562 396.011 602.829C396.521 603.096 397.101 603.2 397.672 603.126C398.813 602.954 399.894 602.503 400.819 601.814C401.552 601.384 402.2 600.822 402.729 600.157C402.991 599.821 403.171 599.429 403.254 599.012C403.337 598.595 403.322 598.165 403.209 597.755C402.935 597.126 402.508 596.575 401.968 596.152C400.621 594.908 399.274 593.663 397.926 592.419L397.47 592.282C397.232 592.029 396.946 591.827 396.629 591.688C396.311 591.548 395.968 591.475 395.621 591.471C395.275 591.467 394.93 591.534 394.61 591.666C394.289 591.799 393.999 591.995 393.756 592.242C392.919 593.179 392.916 594.578 393.044 595.827C393.171 597.076 393.37 598.407 392.814 599.532C392.495 600.178 391.955 600.689 391.6 601.315Z" fill="#AECDDB"/>
<path d="M469.756 643.818C464.521 642.653 459.729 640.013 455.947 636.211C452.164 632.409 449.549 627.604 448.411 622.364C447.914 619.89 447.689 617.188 446.044 615.276C444.451 613.425 441.849 612.757 439.407 612.757C436.965 612.757 434.558 613.319 432.12 613.471C427.859 613.737 423.344 612.611 420.297 609.621C418.854 608.205 417.761 606.406 416.076 605.289C413.811 603.788 410.808 603.789 408.227 604.64C405.352 605.587 403.052 608.179 399.908 607.823C396.639 607.452 392.851 606.296 391.569 610.601C391.2 611.84 391.326 613.199 390.858 614.405C390.138 616.263 388.226 617.311 386.714 618.609C383.668 621.224 382.048 625.196 381.503 629.173C380.958 633.15 381.38 637.189 381.802 641.182C382.03 643.335 382.33 645.652 383.809 647.234C385.87 649.438 389.33 649.353 392.338 649.105C395.833 648.816 399.328 648.527 402.823 648.239C404.707 648.083 406.853 648.017 408.194 649.349C408.998 650.148 409.338 651.302 410.045 652.188C410.679 652.941 411.55 653.457 412.516 653.651C413.481 653.846 414.484 653.708 415.361 653.26C414.652 654.525 414.266 655.947 414.237 657.397C414.209 658.848 414.538 660.283 415.197 661.576C415.855 662.869 416.822 663.98 418.012 664.81C419.202 665.64 420.578 666.164 422.019 666.336L422.288 666.505C420.051 670.337 417.729 674.639 418.657 678.978C419.453 682.698 422.534 685.681 423.038 689.451C423.5 692.911 421.695 696.449 422.493 699.847C423.302 703.288 426.777 705.687 430.302 705.943C433.828 706.199 437.291 704.635 440.022 702.391C442.753 700.147 444.864 697.256 446.945 694.399C448.23 692.634 449.547 690.798 449.988 688.66C450.457 686.386 449.913 683.865 451.019 681.823C452.295 679.468 455.322 678.585 456.851 676.386C458.83 673.538 457.664 669.659 458.101 666.218C459.184 657.704 470.002 652.398 469.756 643.818Z" fill="#177199" fill-opacity="0.35"/>
<path d="M468.194 672.885C467.898 674.215 466.653 675.09 465.467 675.759C464.281 676.429 462.976 677.104 462.372 678.324C461.753 679.574 462.036 681.064 462.36 682.421C463.033 685.243 463.827 688.034 464.74 690.792C466.51 687.447 468.056 683.988 469.366 680.438C469.921 679.117 470.264 677.716 470.382 676.287C470.436 675.572 470.34 674.853 470.099 674.178C469.859 673.502 469.479 672.884 468.986 672.364L468.194 672.885Z" fill="#177199" fill-opacity="0.35"/>
<path d="M540.993 658.078C539.506 656.362 538.02 654.646 536.533 652.93C535.517 651.757 534.358 650.503 532.817 650.308L532.183 650.713C533.472 653.782 534.761 656.85 536.05 659.919C536.506 661.321 537.309 662.584 538.385 663.592C539.538 664.498 541.409 664.672 542.371 663.565C542.681 663.149 542.877 662.66 542.938 662.145C543 661.63 542.925 661.109 542.721 660.632C542.301 659.685 541.716 658.82 540.993 658.078Z" fill="#AECDDB"/>
<path d="M555.397 661.363C555.958 661.168 556.473 660.858 556.908 660.453C557.343 660.047 557.689 659.555 557.923 659.008C558.384 657.913 558.688 656.758 558.827 655.578C559.081 654.042 559.335 652.505 559.589 650.968L559.257 650.883C558.934 650.728 558.566 650.695 558.221 650.791C557.876 650.887 557.577 651.104 557.38 651.404C557.006 652.014 556.723 652.675 556.539 653.368C556.445 653.713 556.274 654.033 556.039 654.304C555.804 654.574 555.511 654.788 555.181 654.929C553.988 655.289 552.858 654.025 551.613 654.074C551.109 654.138 550.643 654.371 550.289 654.734C549.935 655.097 549.714 655.57 549.663 656.075C549.591 657.093 549.88 658.105 550.479 658.932C551.541 660.581 553.512 661.906 555.397 661.363Z" fill="#AECDDB"/>
<path d="M563.615 664.277L567.041 655.255C565.653 656.262 564.589 657.652 563.981 659.255C563.372 660.858 563.245 662.603 563.615 664.277Z" fill="#AECDDB"/>
<path d="M581.098 657.004L580.405 657.033C580.096 657.646 579.931 658.321 579.925 659.007C579.918 659.693 580.07 660.372 580.368 660.99C580.976 662.222 581.86 663.298 582.952 664.132C584.644 665.529 586.576 666.607 588.653 667.315C591.7 668.204 594.849 668.689 598.022 668.758C599.835 668.877 601.649 668.995 603.462 669.114C604.326 669.171 605.444 669.061 605.684 668.229C605.882 667.543 605.297 666.897 604.751 666.436C599.952 662.398 594.136 659.758 587.937 658.805C585.586 658.447 583.092 658.3 581.098 657.004Z" fill="#177199" fill-opacity="0.35"/>
<path d="M600.456 680.948C599.152 679.684 597.847 678.419 596.543 677.154C595.275 675.924 593.374 674.621 591.921 675.625C591.085 676.202 590.828 677.328 590.12 678.056C589.688 678.442 589.167 678.715 588.604 678.849C588.041 678.983 587.453 678.975 586.893 678.824C585.78 678.511 584.726 678.012 583.779 677.348L580.543 675.34C579.426 674.647 578.309 673.954 577.192 673.261L574.672 675.71C574.782 674.505 573.175 673.722 572.062 674.198C571.533 674.495 571.078 674.907 570.731 675.404C570.383 675.9 570.152 676.469 570.055 677.068C569.869 678.264 569.546 679.435 569.091 680.557C567.812 683.006 564.705 683.732 561.972 684.142C559.238 684.553 556.142 685.13 554.679 687.475C553.46 689.429 553.825 691.936 554.233 694.202L555.773 702.774C555.846 703.813 556.262 704.798 556.957 705.573C558.31 706.768 560.407 706.041 562.058 705.313C565.511 703.652 569.216 702.579 573.021 702.136C576.86 701.706 580.723 702.695 583.883 704.918C585.842 706.409 587.335 708.474 589.411 709.798C590.84 710.658 592.447 711.181 594.109 711.326C595.771 711.471 597.444 711.235 599.001 710.636C602.122 709.393 604.705 707.089 606.296 704.131C607.708 701.522 608.417 698.59 608.352 695.624C608.288 692.658 607.452 689.76 605.928 687.215C604.371 684.907 602.533 682.802 600.456 680.948Z" fill="#177199" fill-opacity="0.35"/>
<path d="M596.61 715.873C596.297 716.253 596.114 716.723 596.088 717.215C596.061 717.706 596.193 718.193 596.464 718.605C597.032 719.419 597.899 719.977 598.875 720.157C599.842 720.33 600.828 720.375 601.807 720.291L601.837 719.56C601.576 718.276 600.984 717.083 600.12 716.099C599.175 715.201 597.505 714.925 596.61 715.873Z" fill="#AECDDB"/>
<path d="M630.195 716.655L629.728 716.484C628.615 718.162 627.502 719.839 626.389 721.516C625.791 722.419 625.166 723.503 625.531 724.523C625.963 725.729 627.562 726.083 628.803 725.764C629.751 725.507 630.605 724.985 631.267 724.259C631.928 723.533 632.368 722.634 632.537 721.666C632.674 720.694 632.525 719.703 632.11 718.813C631.694 717.924 631.029 717.174 630.195 716.655Z" fill="#AECDDB"/>
<path d="M638.68 711.332L635.607 708.89C635.566 710.023 635.525 711.156 635.484 712.289L635.369 712.291C636.077 712.912 636.746 713.578 637.371 714.283C638.09 714.894 639.297 715.174 639.912 714.457C640.096 714.201 640.2 713.896 640.212 713.581C640.224 713.265 640.142 712.953 639.978 712.684C639.64 712.151 639.198 711.691 638.68 711.332Z" fill="#AECDDB"/>
<path d="M583.174 605.068C581.885 605.028 580.458 604.949 579.459 605.765C579.13 606.059 578.842 606.395 578.601 606.765L578.249 607.258C577.722 607.948 577.262 608.687 576.877 609.465C576.675 609.83 576.554 610.233 576.522 610.649C576.49 611.064 576.547 611.481 576.69 611.873C576.772 612.06 576.895 612.226 577.049 612.361C577.203 612.495 577.385 612.594 577.582 612.65C577.778 612.707 577.985 612.719 578.187 612.687C578.389 612.655 578.581 612.579 578.75 612.464C579.301 611.954 579.173 611.028 579.589 610.403C579.773 610.167 580.008 609.978 580.277 609.849C580.547 609.72 580.842 609.656 581.14 609.661C581.736 609.676 582.328 609.743 582.912 609.861C584.528 610.083 586.174 609.837 587.655 609.153C589.136 608.469 590.39 607.376 591.269 606.002C592.149 604.628 592.617 603.031 592.618 601.4C592.619 599.769 592.153 598.171 591.276 596.796L591.172 596.479C590.279 596.445 589.403 596.725 588.696 597.271C587.988 597.816 587.494 598.592 587.3 599.464C587.012 600.966 587.623 602.711 586.712 603.94C585.945 604.976 584.463 605.108 583.174 605.068Z" fill="#AECDDB"/>
<path d="M594.714 589.144L594.518 589.127C593.365 589.338 592.258 589.75 591.248 590.345C590.917 590.499 590.652 590.767 590.503 591.101C590.459 591.278 590.46 591.463 590.506 591.639C590.551 591.816 590.64 591.978 590.763 592.112C591.014 592.377 591.307 592.597 591.63 592.764C592.112 593.086 592.645 593.324 593.206 593.469C593.487 593.539 593.782 593.537 594.062 593.465C594.343 593.392 594.602 593.251 594.814 593.054C595.014 592.78 595.151 592.465 595.216 592.132C595.281 591.8 595.273 591.457 595.191 591.128C595.099 590.452 594.939 589.788 594.714 589.144Z" fill="#AECDDB"/>
<path d="M574.844 605.451C575.152 604.957 575.371 604.413 575.49 603.844C575.611 603.401 575.731 602.959 575.851 602.517L574.566 601.736C573.952 602.056 573.386 602.46 572.884 602.936C572.634 603.175 572.436 603.464 572.303 603.784C572.171 604.104 572.105 604.448 572.112 604.794C572.13 605.14 572.264 605.47 572.493 605.73C572.722 605.99 573.032 606.165 573.374 606.226C573.665 606.235 573.953 606.168 574.211 606.032C574.468 605.897 574.686 605.696 574.844 605.451Z" fill="#AECDDB"/>
<path d="M434.847 485.947C434.339 486.264 434.483 487.03 434.689 487.592C434.925 488.237 435.162 488.883 435.399 489.528L435.73 488.275C436.021 487.789 436.149 487.223 436.096 486.659C435.982 486.109 435.325 485.65 434.847 485.947Z" fill="#AECDDB"/>
<path d="M566.954 574.139H561.857V575.838H566.954V574.139Z" fill="#AECDDB"/>
<path d="M258.424 601.845C261.24 601.845 263.522 599.563 263.522 596.748C263.522 593.933 261.24 591.65 258.424 591.65C255.609 591.65 253.327 593.933 253.327 596.748C253.327 599.563 255.609 601.845 258.424 601.845Z" fill="#177199"/>
<path d="M272.017 577.208C274.833 577.208 277.115 574.925 277.115 572.11C277.115 569.295 274.833 567.013 272.017 567.013C269.202 567.013 266.92 569.295 266.92 572.11C266.92 574.925 269.202 577.208 272.017 577.208Z" fill="#177199"/>
<path d="M421.541 557.667C424.356 557.667 426.639 555.385 426.639 552.57C426.639 549.755 424.356 547.473 421.541 547.473C418.726 547.473 416.444 549.755 416.444 552.57C416.444 555.385 418.726 557.667 421.541 557.667Z" fill="#177199"/>
<path d="M304.534 916.956L312.223 916.956L315.88 887.3L304.532 887.301L304.534 916.956Z" fill="#F76B28"/>
<path d="M304.263 924.977L327.906 924.976V924.677C327.906 922.236 326.936 919.896 325.211 918.17C323.485 916.444 321.144 915.475 318.704 915.475H318.703L314.384 912.198L306.327 915.475L304.263 915.475L304.263 924.977Z" fill="#2F2E41"/>
<path d="M362.305 916.956L369.993 916.956L373.651 887.3L362.303 887.301L362.305 916.956Z" fill="#F76B28"/>
<path d="M362.034 924.977L385.677 924.976V924.677C385.677 922.236 384.707 919.896 382.981 918.17C381.255 916.444 378.915 915.475 376.474 915.475H376.474L372.155 912.198L364.097 915.475L362.033 915.475L362.034 924.977Z" fill="#2F2E41"/>
<path d="M304.235 675.712L317.88 673.758C322.494 681.474 324.134 702.013 324.134 702.013L337.487 733.752C338.372 734.352 339.082 735.175 339.548 736.138C340.013 737.1 340.216 738.168 340.137 739.234C340.058 740.301 339.7 741.327 339.098 742.211C338.497 743.094 337.673 743.804 336.71 744.268C335.746 744.732 334.678 744.934 333.612 744.854C332.546 744.774 331.52 744.414 330.637 743.811C329.754 743.209 329.046 742.384 328.583 741.42C328.12 740.457 327.919 739.388 328 738.322L306.076 701.38L304.235 675.712Z" fill="#F76B28"/>
<path d="M311.63 637.832C309.519 638.159 307.505 638.947 305.732 640.141C303.96 641.335 302.472 642.905 301.375 644.739C300.278 646.573 299.599 648.626 299.386 650.753C299.173 652.879 299.431 655.027 300.142 657.042L303.037 665.249C303.037 665.249 299.39 689.961 305.401 696.936L323.846 695.266C323.846 695.266 320.474 682.799 323.063 676.767C324.648 673.073 324.56 660.313 322.998 649.934C321.805 642.008 319.551 636.605 311.63 637.832Z" fill="white"/>
<path d="M375.24 712.288C375.24 712.288 389.458 726.154 386.421 729.356C383.385 732.559 376.44 737.045 382.886 737.775C389.332 738.506 392.006 740.09 386.421 741.422C380.836 742.754 381.7 746.174 381.7 746.174C381.7 746.174 390.107 786.2 383.736 812.537C383.736 812.537 380.19 884.471 377.964 890.074C375.739 895.676 374.889 892.277 375.739 895.676C376.589 899.074 378.288 893.127 376.589 899.074C375.661 902.18 374.927 905.341 374.39 908.538L357.771 905.989C357.771 905.989 355.095 897.555 357.771 895.341C360.447 893.127 362.847 894.492 359.948 889.561C357.049 884.631 356.199 891.428 357.049 884.631C357.898 877.835 354.351 841.076 359.948 821.65L349.606 767.139L333.186 823.581C333.186 823.581 324.477 892.515 321.648 894.945C318.818 897.375 314.57 893.127 318.818 897.375C323.066 901.623 322.992 900.892 323.066 901.623C323.857 909.415 299.534 900.892 299.534 900.892C299.669 898.912 299.669 896.925 299.534 894.945C299.278 893.127 302.339 892.545 299.534 890.712C296.729 888.879 300.903 890.697 300.903 890.697C300.903 890.697 307.175 839.842 311.947 824.431L317.469 749.383C317.469 749.383 317.82 750.88 317.469 747.242C317.119 743.603 314.57 746.152 317.119 743.603C319.668 741.054 321.367 739.756 319.668 737.856C317.968 735.957 313.281 732.114 316.05 729.788C318.818 727.461 324.266 712.288 324.266 712.288L377.364 712.713" fill="#177199"/>
<path d="M355.276 628.033L345.702 617.253L330.573 618.934L320.888 632.489C315.732 633.674 311.227 636.79 308.299 641.196C305.371 645.601 304.243 650.962 305.147 656.174C308.906 677.817 321.679 698.808 317.461 709.486C311.059 725.696 310.668 732.307 325.994 730.035C341.319 727.762 392.662 722.523 382.708 712.569C372.754 702.614 370.567 685.98 370.567 685.98L370.168 647.924C370.591 645.629 370.535 643.271 370.002 640.999C369.47 638.726 368.473 636.589 367.074 634.72C365.675 632.852 363.905 631.293 361.875 630.143C359.844 628.992 357.597 628.274 355.276 628.033Z" fill="#177199"/>
<path d="M352.66 669.765L366.305 667.811C370.92 675.527 372.56 696.066 372.56 696.066L385.913 727.804C386.797 728.405 387.508 729.228 387.973 730.19C388.438 731.153 388.642 732.221 388.563 733.287C388.484 734.353 388.126 735.38 387.524 736.264C386.922 737.147 386.098 737.857 385.135 738.321C384.172 738.785 383.104 738.987 382.038 738.907C380.972 738.827 379.945 738.467 379.063 737.864C378.18 737.261 377.471 736.437 377.008 735.473C376.545 734.509 376.345 733.441 376.426 732.375L354.501 695.433L352.66 669.765Z" fill="#F76B28"/>
<path d="M360.056 631.885C357.944 632.212 355.93 633 354.157 634.194C352.385 635.388 350.897 636.958 349.8 638.792C348.703 640.626 348.024 642.679 347.811 644.806C347.598 646.932 347.856 649.079 348.567 651.095L351.463 659.302C351.463 659.302 347.815 684.013 353.826 690.989L372.271 689.319C372.271 689.319 368.899 676.852 371.488 670.82C373.074 667.125 372.986 654.366 371.423 643.987C370.23 636.061 367.976 630.658 360.056 631.885Z" fill="white"/>
<path d="M333.978 620.573C344.077 620.573 352.263 612.386 352.263 602.287C352.263 592.189 344.077 584.002 333.978 584.002C323.879 584.002 315.692 592.189 315.692 602.287C315.692 612.386 323.879 620.573 333.978 620.573Z" fill="#F76B28"/>
<path d="M330.614 620.188C335.707 618.912 335.881 617.457 340.973 616.181C342.595 615.774 344.474 615.134 344.954 613.533C345.068 612.948 345.045 612.344 344.886 611.769C344.727 611.194 344.437 610.663 344.038 610.219C343.236 609.34 342.484 608.417 341.787 607.452C341.325 606.678 341.059 605.802 341.011 604.902C340.963 604.001 341.136 603.103 341.513 602.284C341.891 601.464 342.462 600.75 343.177 600.201C343.893 599.652 344.731 599.286 345.62 599.134C347.196 598.864 348.82 599.281 350.406 599.079C352.58 598.803 355.778 590.735 354.384 589.043C353.028 587.397 350.8 586.414 350.052 584.416C349.563 583.109 349.83 581.648 349.612 580.27C349.289 578.226 345.153 583.884 345.704 581.89C347.054 576.997 324.207 576.226 321.828 582.504C320.939 584.85 318.532 585.222 316.681 586.916C315.468 588.026 312.566 591.577 312.145 593.492C311.797 595.427 311.864 597.415 312.342 599.322C314.24 608.265 317.376 616.19 325.724 619.916" fill="#2F2E41"/>
<path d="M673.692 552.08H505.308C501.249 552.076 497.358 550.461 494.489 547.592C491.619 544.722 490.005 540.831 490 536.773V416.308C490.005 412.249 491.619 408.358 494.489 405.489C497.358 402.619 501.249 401.005 505.308 401H673.692C677.751 401.005 681.642 402.619 684.511 405.489C687.381 408.358 688.995 412.249 689 416.308V536.773C688.995 540.831 687.381 544.722 684.511 547.592C681.642 550.461 677.751 552.076 673.692 552.08Z" fill="white"/>
<path d="M673.692 552.08H505.308C501.249 552.076 497.358 550.461 494.489 547.592C491.619 544.722 490.005 540.831 490 536.773V416.308C490.005 412.249 491.619 408.358 494.489 405.489C497.358 402.619 501.249 401.005 505.308 401H673.692C677.751 401.005 681.642 402.619 684.511 405.489C687.381 408.358 688.995 412.249 689 416.308V536.773C688.995 540.831 687.381 544.722 684.511 547.592C681.642 550.461 677.751 552.076 673.692 552.08ZM505.308 402.331C501.602 402.335 498.05 403.809 495.429 406.429C492.809 409.05 491.335 412.602 491.331 416.308V536.773C491.335 540.478 492.809 544.031 495.429 546.651C498.05 549.271 501.602 550.745 505.308 550.749H673.692C677.398 550.745 680.95 549.271 683.571 546.651C686.191 544.031 687.665 540.478 687.669 536.773V416.308C687.665 412.602 686.191 409.05 683.571 406.429C680.95 403.809 677.398 402.335 673.692 402.331H505.308Z" fill="#177199"/>
<path d="M551.121 419.342H524.499C523.793 419.342 523.115 419.062 522.616 418.562C522.117 418.063 521.836 417.386 521.836 416.68C521.836 415.974 522.117 415.297 522.616 414.797C523.115 414.298 523.793 414.018 524.499 414.018H551.121C551.827 414.018 552.504 414.298 553.003 414.797C553.502 415.297 553.783 415.974 553.783 416.68C553.783 417.386 553.502 418.063 553.003 418.562C552.504 419.062 551.827 419.342 551.121 419.342Z" fill="#BFE9FB"/>
<path d="M609.024 479.241H524.499C523.793 479.241 523.115 478.961 522.616 478.462C522.117 477.962 521.836 477.285 521.836 476.579C521.836 475.873 522.117 475.196 522.616 474.697C523.115 474.197 523.793 473.917 524.499 473.917H609.024C609.73 473.917 610.407 474.197 610.906 474.697C611.405 475.196 611.686 475.873 611.686 476.579C611.686 477.285 611.405 477.962 610.906 478.462C610.407 478.961 609.73 479.241 609.024 479.241Z" fill="#BFE9FB"/>
<path d="M539.471 462.435C549.329 462.435 557.32 454.444 557.32 444.586C557.32 434.728 549.329 426.736 539.471 426.736C529.613 426.736 521.622 434.728 521.622 444.586C521.622 454.444 529.613 462.435 539.471 462.435Z" fill="#177199"/>
<path d="M525.83 530.082H521.836V531.413H525.83V530.082Z" fill="#177199"/>
<path d="M643.079 531.413H634.704V530.082H643.079V531.413ZM626.329 531.413H617.954V530.082H626.329V531.413ZM609.579 531.413H601.204V530.082H609.579V531.413ZM592.829 531.413H584.454V530.082H592.829L592.829 531.413ZM576.079 531.413H567.704V530.082H576.079V531.413ZM559.329 531.413H550.955V530.082H559.33L559.329 531.413ZM542.58 531.413H534.205V530.082H542.58V531.413Z" fill="#177199"/>
<path d="M655.447 530.082H651.454V531.413H655.447V530.082Z" fill="#177199"/>
<path d="M589.615 506.529H586.288V529.158H589.615V506.529Z" fill="#177199"/>
<path d="M623.558 506.529H620.231V529.158H623.558V506.529Z" fill="#177199"/>
<path d="M640.197 519.175H636.87V529.158H640.197V519.175Z" fill="#177199"/>
<path d="M606.254 496.546H602.927V529.158H606.254V496.546Z" fill="#177199"/>
</svg>
