<svg width="40" height="40" viewBox="0 0 40 40" fill="none" xmlns="http://www.w3.org/2000/svg">
<path fill-rule="evenodd" clip-rule="evenodd" d="M19.8925 13.7526H22.0842C22.3052 13.7526 22.5172 13.6648 22.6735 13.5085C22.8297 13.3522 22.9175 13.1403 22.9175 12.9193C22.9175 12.6983 22.8297 12.4863 22.6735 12.33C22.5172 12.1737 22.3052 12.0859 22.0842 12.0859H19.8925C19.6017 12.0859 19.2634 12.1334 18.9342 12.2943C17.7475 12.8734 17.0759 13.8751 16.7067 14.8509C16.5817 15.1801 16.4892 15.5134 16.4209 15.8359H18.1359C18.1734 15.7026 18.2159 15.5709 18.265 15.4401C18.5334 14.7301 18.9692 14.1318 19.665 13.7918C19.7373 13.7621 19.8145 13.7487 19.8925 13.7526ZM15.0009 16.6693C14.5409 16.6693 14.1567 17.0493 14.2817 17.4926C14.7625 19.2084 16.72 20.5434 19.1675 20.7934V22.0918C18.5884 22.1059 17.9867 22.1526 17.4759 22.3009C17.0775 22.4176 16.655 22.6159 16.3317 22.9793C15.9934 23.3593 15.8342 23.8393 15.8342 24.3751C15.8342 24.9109 15.9925 25.3918 16.3309 25.7726C16.6542 26.1368 17.0767 26.3368 17.4759 26.4534C17.7425 26.5309 18.0342 26.5809 18.3342 26.6126V24.9351C18.2019 24.9171 18.071 24.8899 17.9425 24.8534C17.7175 24.7868 17.6184 24.7134 17.5775 24.6668C17.5509 24.6368 17.5009 24.5693 17.5009 24.3751C17.5009 24.1834 17.5509 24.1168 17.5759 24.0876C17.6175 24.0409 17.7159 23.9668 17.9425 23.9009C18.2617 23.8084 18.6734 23.7734 19.1675 23.7601V28.3359H16.6675V30.0026H23.3342V28.3359H20.8342V23.7218C21.7525 23.6501 22.4967 23.4484 23.0567 23.0876C23.8442 22.5793 24.1675 21.8234 24.1675 21.0209C24.1741 20.5923 24.0678 20.1696 23.8592 19.7951C24.7959 19.2034 25.465 18.4018 25.72 17.4926C25.845 17.0493 25.4617 16.6693 25.0009 16.6693H15.0009ZM22.1534 21.6859C21.9175 21.8384 21.5084 21.9834 20.8342 22.0484V20.7934C21.3347 20.7433 21.829 20.6439 22.31 20.4968C22.4475 20.6276 22.5009 20.7868 22.5009 21.0218C22.5009 21.3301 22.4075 21.5226 22.1534 21.6859Z" fill="white"/>
<path fill-rule="evenodd" clip-rule="evenodd" d="M26.6667 26.6667H35V13.3333H26.6667V5H13.3333V13.3333H5V26.6667H13.3333V35H26.6667V26.6667ZM25 33.3333V25H33.3333V15H25V6.66667H15V15H6.66667V25H15V33.3333H25Z" fill="white"/>
</svg>
