<svg width="40" height="40" viewBox="0 0 40 40" fill="#177097" xmlns="http://www.w3.org/2000/svg">
<path d="M35.3125 29.1796H4.6875C4.51562 29.1796 4.375 29.3203 4.375 29.4921V31.6796C4.375 31.8515 4.51562 31.9921 4.6875 31.9921H35.3125C35.4844 31.9921 35.625 31.8515 35.625 31.6796V29.4921C35.625 29.3203 35.4844 29.1796 35.3125 29.1796ZM6.47266 24.289L8.02344 25.832C8.14453 25.9531 8.34375 25.9531 8.46484 25.832L17.6328 16.6953L21.4453 20.4961C21.6802 20.7288 21.9975 20.8593 22.3281 20.8593C22.6588 20.8593 22.9761 20.7288 23.2109 20.4961L33.5312 10.2148C33.6523 10.0937 33.6523 9.89449 33.5312 9.7734L31.9805 8.22652C31.9217 8.16837 31.8424 8.13574 31.7598 8.13574C31.6771 8.13574 31.5978 8.16837 31.5391 8.22652L22.332 17.4062L18.5156 13.6054C18.2807 13.3727 17.9635 13.2421 17.6328 13.2421C17.3022 13.2421 16.9849 13.3727 16.75 13.6054L6.47266 23.8476C6.44344 23.8765 6.42024 23.9108 6.4044 23.9487C6.38857 23.9866 6.38041 24.0273 6.38041 24.0683C6.38041 24.1094 6.38857 24.15 6.4044 24.1879C6.42024 24.2258 6.44344 24.2602 6.47266 24.289Z" fill="#177097"/>
</svg>
