<svg width="40" height="40" viewBox="0 0 40 40" fill="none" xmlns="http://www.w3.org/2000/svg">
<path d="M19.9997 30L12.3872 19.25C11.1412 17.7788 10.3388 15.9839 10.0734 14.0744C9.80805 12.1648 10.0907 10.2191 10.8884 8.46394C11.686 6.70878 12.966 5.21635 14.579 4.16049C16.1921 3.10462 18.072 2.52877 19.9997 2.5C22.6719 2.52641 25.2247 3.61074 27.099 5.51552C28.9733 7.42029 30.0164 9.99024 29.9997 12.6625C30.0007 14.9937 29.2071 17.2556 27.7497 19.075L19.9997 30ZM19.9997 5C17.9895 5.02308 16.0707 5.84297 14.6645 7.27963C13.2583 8.71629 12.4797 10.6523 12.4997 12.6625C12.5081 14.4973 13.1682 16.2694 14.3622 17.6625L19.9997 25.65L25.7872 17.5C26.8873 16.1268 27.4908 14.422 27.4997 12.6625C27.5197 10.6523 26.7411 8.71629 25.335 7.27963C23.9288 5.84297 22.0099 5.02308 19.9997 5Z" fill="white"/>
<path d="M20 13.75C21.3807 13.75 22.5 12.6307 22.5 11.25C22.5 9.86929 21.3807 8.75 20 8.75C18.6193 8.75 17.5 9.86929 17.5 11.25C17.5 12.6307 18.6193 13.75 20 13.75Z" fill="white"/>
<path d="M35 15H32.5V17.5H35V35H5V17.5H7.5V15H5C4.33696 15 3.70107 15.2634 3.23223 15.7322C2.76339 16.2011 2.5 16.837 2.5 17.5V35C2.5 35.663 2.76339 36.2989 3.23223 36.7678C3.70107 37.2366 4.33696 37.5 5 37.5H35C35.663 37.5 36.2989 37.2366 36.7678 36.7678C37.2366 36.2989 37.5 35.663 37.5 35V17.5C37.5 16.837 37.2366 16.2011 36.7678 15.7322C36.2989 15.2634 35.663 15 35 15Z" fill="white"/>
</svg>
